# xmcd
#
# Track frame offsets:
#	150
#	13859
#	27278
#	41312
#	55278
#	70080
#	82972
#	95137
#	106931
#	118719
#	130613
#	142023
#	157881
#	171963
#	186017
#	203696
#	214626
#	227487
#	245213
#	259269
#
# Disc length: 3610 seconds
# Revision: 0
# Processed by: cddbd v1.5.2PL0 Copyright (c) Steve Scherf et al.
# Submitted via: dBpowerAMP V12.0
#
DISCID=120e1814
DTITLE=木村好夫 - 木村好夫 魅惑の昭和歌謡集 Disc1
DYEAR=2012
DGENRE=Japanese Blues
TTITLE0=兄弟仁義
TTITLE1=函館の女
TTITLE2=柳ヶ瀬ブルース
TTITLE3=夜霧よ今夜も有難う
TTITLE4=恋あざみ
TTITLE5=女のみち
TTITLE6=なみだの操
TTITLE7=くちなしの花
TTITLE8=花街の母
TTITLE9=なみだ恋
TTITLE10=昔の名前で出ています
TTITLE11=すきま風
TTITLE12=夕焼け雲
TTITLE13=カスマプゲ
TTITLE14=北国の春
TTITLE15=そんな女のひとりごと
TTITLE16=津軽海峡・冬景色
TTITLE17=氷雨
TTITLE18=みちづれ
TTITLE19=夢追い酒
EXTD=
EXTT0=
EXTT1=
EXTT2=
EXTT3=
EXTT4=
EXTT5=
EXTT6=
EXTT7=
EXTT8=
EXTT9=
EXTT10=
EXTT11=
EXTT12=
EXTT13=
EXTT14=
EXTT15=
EXTT16=
EXTT17=
EXTT18=
EXTT19=
PLAYORDER=
